HIERARCHY
ROOT hip
{
	OFFSET 0.000000 0.000000 0.000000 
	CHANNELS 6 Xposition Yposition Zposition Xrotation Zrotation Yrotation
	JOINT abdomen
	{
		OFFSET 0.000000 3.402643 0.000000 
		CHANNELS 3 Xrotation Zrotation Yrotation
		JOINT chest
		{
			OFFSET 0.000000 8.438565 -0.680529 
			CHANNELS 3 Xrotation Zrotation Yrotation
			JOINT neck
			{
				OFFSET 0.000000 10.207942 -0.272212 
				CHANNELS 3 Xrotation Zrotation Yrotation
				JOINT head
				{
					OFFSET 0.000000 3.130431 0.000000 
					CHANNELS 3 Xrotation Zrotation Yrotation
					End Site
					{
						OFFSET 0.000000 3.130435 0.000000 
					}
				}
			}
			JOINT lCollar
			{
				OFFSET 3.470700 6.669187 -0.816635 
				CHANNELS 3 Yrotation Zrotation Xrotation
				JOINT lShldr
				{
					OFFSET 3.198488 0.000000 0.000000 
					CHANNELS 3 Zrotation Yrotation Xrotation
					JOINT lForeArm
					{
						OFFSET 10.139888 0.000000 0.000000 
						CHANNELS 3 Yrotation Zrotation Xrotation
						JOINT lHand
						{
							OFFSET 8.370511 0.000000 0.000000 
							CHANNELS 3 Zrotation Yrotation Xrotation
							End Site
							{
								OFFSET 4.083176 0.000000 0.000000 
							}
						}
					}
				}
			}
			JOINT rCollar
			{
				OFFSET -3.470700 6.669187 -0.816635 
				CHANNELS 3 Yrotation Zrotation Xrotation
				JOINT rShldr
				{
					OFFSET -3.198488 0.000000 0.000000 
					CHANNELS 3 Zrotation Yrotation Xrotation
					JOINT rForeArm
					{
						OFFSET -10.139888 0.000000 0.000000 
						CHANNELS 3 Yrotation Zrotation Xrotation
						JOINT rHand
						{
							OFFSET -8.370511 0.000000 0.000000 
							CHANNELS 3 Zrotation Yrotation Xrotation
							End Site
							{
								OFFSET -4.083176 0.000000 0.000000 
							}
						}
					}
				}
			}
		}
	}
	JOINT lThigh
	{
		OFFSET 5.308129 -1.633274 1.361059 
		CHANNELS 3 Xrotation Zrotation Yrotation
		JOINT lShin
		{
			OFFSET -2.041588 -20.007561 0.000000 
			CHANNELS 3 Xrotation Zrotation Yrotation
			JOINT lFoot
			{
				OFFSET 0.000000 -19.190928 -1.224953 
				CHANNELS 3 Xrotation Yrotation Zrotation
				End Site
				{
					OFFSET 0.000000 -2.449906 4.627600 
				}
			}
		}
	}
	JOINT rThigh
	{
		OFFSET -5.308129 -1.633274 1.361059 
		CHANNELS 3 Xrotation Zrotation Yrotation
		JOINT rShin
		{
			OFFSET 2.041588 -20.007561 0.000000 
			CHANNELS 3 Xrotation Zrotation Yrotation
			JOINT rFoot
			{
				OFFSET 0.000000 -19.190928 -1.224953 
				CHANNELS 3 Xrotation Yrotation Zrotation
				End Site
				{
					OFFSET 0.000000 -2.449906 4.627600 
				}
			}
		}
	}
}
MOTION
Frames: 13
Frame Time: 0.033333
-24.977472 28.882336 31.468111 -166.746933 177.699600 -4.526370 0.000000 0.000000 0.000000 24.343445 3.435227 -0.077834 23.756859 2.838905 -2.244256 -18.997160 0.813517 -3.003369 -6.998872 20.074627 23.941612 7.113098 3.533585 -43.540302 -0.015570 8.156243 0.988325 -56.082726 -3.247393 0.170260 4.645299 -13.227274 23.131956 -10.563165 -23.760874 -15.874826 0.803224 -1.279881 -17.416250 40.035164 3.572540 -0.853630 -51.668869 44.012733 0.107800 97.292877 2.918135 -12.263918 -29.284702 3.350513 -12.777853 -39.169201 -50.154850 -9.809237 96.073029 -4.882708 3.236178 -29.192516 -5.916459 22.401060 
-25.060339 28.990055 31.538958 -166.385239 177.693558 -4.626767 0.000000 0.000000 0.000000 25.194248 3.411827 0.099855 23.803690 2.732243 -2.136427 -18.899963 0.874874 -3.140965 -6.736952 18.493896 24.595280 6.586833 1.990103 -45.176125 -0.041641 8.414130 0.560123 -50.308571 -1.634254 -1.036119 4.527678 -10.760107 23.763344 -9.858345 -22.194986 -19.616758 0.792302 -1.669512 -16.441528 29.501219 2.087686 -1.941945 -50.976223 44.159771 0.772220 97.038605 2.859548 -12.331026 -29.119743 3.228839 -12.410433 -38.915737 -50.164757 -9.870781 95.623383 -4.853419 2.994676 -28.623209 -5.774818 22.368324 
-25.147335 29.108101 31.629944 -166.318542 177.874512 -4.697560 0.000000 0.000000 0.000000 25.609623 3.215056 0.231602 23.684156 2.676161 -2.146657 -18.030745 0.881683 -3.235064 -6.843859 17.040565 24.933441 5.108848 -0.088123 -46.304989 -0.033031 8.560831 0.400230 -40.536869 0.496863 -2.365279 4.447201 -7.732175 24.000797 -9.391963 -20.066534 -22.258699 0.825094 -1.522635 -16.458447 15.330703 -0.362660 -3.083588 -50.534142 44.138084 1.636638 96.738998 2.711605 -12.681306 -28.938343 3.037704 -11.755867 -39.110126 -50.232098 -9.749725 95.179810 -4.862779 2.816386 -28.114256 -5.653333 22.324383 
-25.188547 29.243879 31.737289 -167.099121 177.734390 -4.637102 0.000000 0.000000 0.000000 25.427954 3.369960 0.341186 23.139679 2.772263 -2.224712 -17.150904 0.765224 -3.367171 -6.247063 14.434601 24.548883 4.518888 -2.456058 -47.460732 0.006936 8.748800 1.737471 -27.970934 1.698131 -3.060761 4.146826 -3.993849 23.672384 -9.488878 -17.693031 -23.255341 0.728822 -1.271533 -13.857145 2.329965 -0.632306 -3.388943 -51.357471 44.120991 1.612428 96.377327 2.621279 -12.493342 -28.596464 2.975520 -11.620928 -39.520485 -49.909912 -10.156798 94.741554 -4.687141 2.670118 -27.799118 -5.563873 22.181362 
-25.235878 29.325176 31.751759 -166.990997 177.668762 -4.646767 0.000000 0.000000 0.000000 25.830135 3.402642 0.454859 22.671928 2.799074 -2.342656 -16.426460 0.407033 -3.402946 -6.208492 11.333055 24.759853 3.643981 -4.172018 -47.518906 0.029242 8.654715 3.082197 -14.856139 1.359791 -3.200675 4.089509 -0.973708 23.932676 -8.389746 -15.031382 -24.759588 0.648279 -0.961655 -11.722296 -9.749837 -1.582450 -3.659767 -51.098633 44.097305 1.826612 96.177444 2.605397 -12.353230 -28.473131 2.926728 -11.560952 -39.167648 -49.819988 -10.295004 94.436859 -4.608814 3.041099 -27.809147 -5.513582 21.975887 
-25.280691 29.373884 31.742575 -166.629669 177.700699 -4.609558 0.000000 0.000000 0.000000 26.287205 3.301796 0.535947 22.095694 2.841139 -2.383351 -15.313539 0.517774 -3.520632 -6.238942 10.326609 25.000000 0.251689 -7.305394 -47.968498 0.012833 8.537456 2.919911 -0.713138 1.175883 -3.453312 4.024853 1.215406 24.279493 -5.997669 -11.848621 -27.253817 0.545352 -0.821218 -9.218036 -23.701260 -0.652544 -4.032490 -50.544743 43.933727 2.019193 96.083298 2.625770 -12.225072 -28.512745 2.954576 -11.565210 -38.727409 -49.896942 -10.356060 94.237991 -4.628946 3.108392 -27.708399 -5.481814 21.982567 
-25.293312 29.416912 31.705830 -166.608429 177.529892 -4.675499 0.000000 0.000000 0.000000 26.284258 3.196726 0.659909 21.595280 3.175272 -2.477492 -14.384899 0.188792 -3.429701 -6.130422 8.145938 25.000000 -1.909039 -9.904367 -48.685806 0.027065 8.631040 3.014291 10.089726 0.764116 -3.672468 4.108935 5.071866 24.140850 -5.338671 -9.114304 -28.503681 0.559956 -0.469994 -10.474024 -35.926098 -0.497065 -4.393793 -50.374672 43.949783 1.881313 96.045181 2.674874 -12.142890 -28.696138 3.013959 -11.722911 -38.397305 -49.665154 -10.514506 94.062096 -4.580104 3.150484 -27.695000 -5.490108 22.010942 
-25.302839 29.398666 31.681416 -166.638321 177.586594 -5.129751 0.000000 0.000000 0.000000 26.059446 2.825402 0.834215 21.075020 3.026420 -2.376694 -13.506303 0.352853 -3.610143 -5.641040 5.087415 24.621321 -3.534515 -12.272495 -48.805073 0.083575 8.761716 5.295517 16.671984 0.582119 -3.863139 4.608871 8.643721 23.791822 -5.138913 -6.602955 -28.731400 0.600907 0.169669 -12.225214 -43.928097 -0.891248 -4.462748 -49.969074 43.982830 2.059797 96.136459 2.692996 -12.029802 -28.970503 3.099127 -11.967100 -39.022690 -49.412579 -9.837687 94.108780 -4.667751 2.867413 -27.568007 -5.515605 22.197056 
-25.292469 29.369724 31.601252 -166.441147 177.427170 -5.063098 0.000000 0.000000 0.000000 26.071154 2.904114 1.068592 20.013071 3.075953 -2.528349 -11.865345 0.182981 -3.896425 -5.737297 3.018132 24.544741 -6.577632 -14.874841 -48.967731 0.169282 9.089835 8.660950 21.521667 -0.390166 -4.152258 4.392101 11.717970 23.724043 -4.469422 -3.631003 -30.189617 0.517207 0.443644 -12.206477 -48.059891 -1.861006 -4.159972 -49.838696 43.833485 1.564107 96.276024 2.830289 -11.801702 -29.219074 3.234991 -12.395428 -38.523689 -49.400970 -10.088636 94.149200 -4.716817 2.528900 -27.501863 -5.562176 22.495745 
-25.285347 29.325928 31.509638 -165.978134 177.129028 -5.162189 0.000000 0.000000 0.000000 26.347765 3.011072 1.227102 18.810089 3.111820 -2.444615 -10.048858 -0.101780 -3.832831 -5.076159 0.972839 24.670477 -9.034746 -17.477741 -47.603310 0.194456 8.813410 9.852948 25.011292 -0.801074 -4.352940 4.589168 13.220661 23.892853 -2.254010 -0.400012 -30.745317 0.392787 1.049648 -11.247137 -51.068417 -2.332560 -3.987379 -49.452835 43.905888 1.152359 96.486824 2.975691 -11.487968 -29.480127 3.387393 -12.789660 -37.878239 -49.174274 -10.190722 94.239540 -4.735783 2.450012 -27.593224 -5.595366 22.612602 
-25.283812 29.262638 31.433252 -165.519104 177.172684 -5.236870 0.000000 0.000000 0.000000 26.587273 2.812574 1.162884 17.612158 2.917719 -2.442538 -8.740635 0.382186 -3.927951 -4.808568 -0.865249 24.793594 -11.601872 -19.801943 -46.740334 0.340127 8.702259 9.820539 27.784805 0.274365 -4.218017 4.715772 14.883216 24.058567 -0.651521 2.768121 -31.347424 0.237176 1.670452 -11.476397 -53.339851 -3.063995 -3.664485 -48.857239 43.720509 1.030536 96.696220 3.093979 -11.242304 -29.760429 3.524414 -13.171369 -37.575405 -49.223587 -9.905566 94.436813 -4.862859 2.546054 -27.820589 -5.686025 22.752811 
-25.280853 29.206507 31.359886 -165.538528 177.162979 -5.342819 0.000000 0.000000 0.000000 26.281549 2.706139 1.111380 16.642967 2.816960 -2.510841 -7.959350 0.374417 -3.900414 -5.563174 -2.265355 24.470119 -15.162869 -20.252432 -44.686283 -0.921892 8.483922 9.281778 27.972687 1.818073 -3.866958 4.975688 16.775509 23.687319 0.426261 5.566726 -31.029955 0.062688 2.532638 -13.319797 -53.872795 -3.834227 -3.290525 -48.764339 43.569901 0.710472 96.892624 3.172147 -11.133381 -30.098093 3.681168 -13.562827 -37.691360 -49.124058 -9.632345 94.639282 -4.911372 2.579021 -28.030558 -5.780197 22.877975 
-25.273317 29.165102 31.268648 -165.585175 176.992111 -5.388915 0.000000 0.000000 0.000000 25.968987 2.722162 1.208301 15.678914 2.922792 -2.704726 -7.636838 0.215647 -4.086254 -5.541348 -2.517115 24.171595 -21.086525 -20.352110 -42.386402 -6.318429 8.300379 10.987276 27.162636 3.359202 -3.493193 5.008829 17.890802 23.360605 2.026732 8.228647 -29.690460 -0.187982 3.597614 -14.361179 -53.293240 -4.422336 -3.007322 -48.822277 43.530293 0.227798 97.098846 3.240726 -11.034410 -30.459583 3.785561 -13.887944 -37.526859 -48.862232 -9.555701 94.705078 -4.951126 2.355583 -28.104887 -5.897898 23.236734 
